<?xml version="1.0" encoding="UTF-8" standalone="no"?>
<!-- Created with Inkscape (http://www.inkscape.org/) -->

<svg
   width="210mm"
   height="297mm"
   viewBox="0 0 210 297"
   version="1.1"
   id="svg1"
   xml:space="preserve"
   inkscape:version="1.4.3 (0d15f75042, 2025-12-25)"
   sodipodi:docname="Daylight_core.svg"
   xmlns:inkscape="http://www.inkscape.org/namespaces/inkscape"
   xmlns:sodipodi="http://sodipodi.sourceforge.net/DTD/sodipodi-0.dtd"
   xmlns="http://www.w3.org/2000/svg"
   xmlns:svg="http://www.w3.org/2000/svg"><sodipodi:namedview
     id="namedview1"
     pagecolor="#ffffff"
     bordercolor="#000000"
     borderopacity="0.25"
     inkscape:showpageshadow="2"
     inkscape:pageopacity="0.0"
     inkscape:pagecheckerboard="0"
     inkscape:deskcolor="#d1d1d1"
     inkscape:document-units="mm"
     inkscape:zoom="0.7215909"
     inkscape:cx="351.30709"
     inkscape:cy="375.55906"
     inkscape:window-width="1920"
     inkscape:window-height="1012"
     inkscape:window-x="0"
     inkscape:window-y="0"
     inkscape:window-maximized="1"
     inkscape:current-layer="layer1" /><defs
     id="defs1" /><g
     inkscape:label="Layer 1"
     inkscape:groupmode="layer"
     id="layer1"
     style="display:inline"><path
       id="path1"
       style="display:inline;opacity:1;fill:#ceae6d;fill-opacity:1;stroke:#3c1810;stroke-width:0.396875;stroke-linecap:round;stroke-linejoin:round;stroke-dasharray:none;stroke-opacity:1;paint-order:normal"
       d="m 74.864681,81.768136 -2.041736,0.03256 c -0.21481,0.87057 3.122658,1.964201 3.145028,7.815027 0.0053,1.379626 -3.474448,2.610555 -5.057056,3.009635 0.364235,4.840196 2.192178,7.090656 4.116028,9.171532 -5.453418,-4.993092 -3.987823,-11.140591 -6.254915,-10.986925 -0.415821,1.214796 -0.05006,3.504829 -0.03256,5.315438 0.942545,1.249437 1.02848,2.325693 0.162264,2.657202 1.654118,2.197685 3.487946,3.993725 6.514332,5.088575 -5.031187,-1.26717 -6.028324,-5.017647 -9.301758,-6.935491 -0.260066,1.572673 0.60149,3.247961 0.55087,5.055501 1.716564,0.9036 4.496692,1.90774 3.873149,3.32228 -0.296707,0.67306 -2.009724,0.27051 -2.673739,0.0486 -0.245128,1.42228 0.468993,3.07337 3.111438,5.18522 1.492813,0.37394 3.739529,-1.20751 3.98632,2.3983 l 1.105876,-0.38499 c -0.234418,-4.06789 2.101415,-5.12506 3.615283,-4.61264 3.202405,1.08397 1.145059,5.13253 1.756482,5.24723 1.226945,-1.5049 3.857238,-5.85526 -2.264461,-8.83822 -2.166295,1.6152 -4.354841,1.11262 -6.142778,0.78755 1.783523,0.37528 4.828324,0.52323 4.688286,-0.88828 0.46844,0.1405 0.842476,0.045 1.189592,-0.11782 -0.700697,-0.57173 -1.625239,-1.19632 -1.906544,-2.21179 -0.428125,-1.54546 -0.680604,-3.422181 -0.19482,-4.990911 0.485784,-1.56873 0.342741,-2.783374 4.634859,-5.542297 l -0.03256,-1.490865 c -0.529348,0.0012 -1.058669,0.271711 -1.588017,0.615983 l 0.842843,-1.134298 z M 65.880733,93.94672 c -0.09902,-0.0013 -0.182934,0.02426 -0.24753,0.08062 -0.681771,0.59485 2.461692,5.331497 3.574976,4.514453 1.128998,-0.828577 -2.159003,-4.579269 -3.327446,-4.595069 z m -0.199988,8.2212 c -0.659704,-0.0338 -1.165441,0.10952 -1.322916,0.50747 -0.454946,1.14966 5.661869,3.9283 6.203239,2.51302 0.467008,-1.22087 -2.90121,-2.91911 -4.880323,-3.02049 z"
       sodipodi:nodetypes="cccccccccccsccccscccccsscccccsssssssss" /></g></svg>
